<svg width="50" height="56" viewBox="0 0 50 56" fill="none" xmlns="http://www.w3.org/2000/svg">
<path d="M16.44 18.37C16.4413 17.4675 16.2645 16.5735 15.9197 15.7394C15.575 14.9053 15.069 14.1474 14.4308 13.5092C13.7926 12.871 13.0347 12.3651 12.2006 12.0203C11.3665 11.6755 10.4726 11.4987 9.57001 11.5H7.87C6.96745 11.4987 6.07352 11.6755 5.23942 12.0203C4.40532 12.3651 3.64745 12.871 3.00925 13.5092C2.37105 14.1474 1.86505 14.9053 1.52027 15.7394C1.17549 16.5735 0.998691 17.4675 1.00001 18.37H16.44Z" stroke="black" stroke-width="2" stroke-linecap="round" stroke-linejoin="round"/>
<path d="M8.72974 9.47C8.27142 9.47 7.81761 9.37972 7.39418 9.20433C6.97075 9.02894 6.58602 8.77188 6.26195 8.4478C5.93787 8.12372 5.68079 7.73899 5.5054 7.31557C5.33001 6.89214 5.23975 6.43831 5.23975 5.98V4.5C5.23975 3.57174 5.60848 2.68149 6.26486 2.02512C6.92124 1.36874 7.81149 1 8.73975 1C9.668 1 10.5582 1.36874 11.2146 2.02512C11.871 2.68149 12.2397 3.57174 12.2397 4.5V5.98C12.2398 6.44 12.1488 6.89546 11.9722 7.32019C11.7955 7.74493 11.5367 8.13056 11.2105 8.4549C10.8843 8.77923 10.4972 9.03589 10.0715 9.2101C9.64572 9.38431 9.18973 9.47264 8.72974 9.47Z" stroke="black" stroke-width="2" stroke-linecap="round" stroke-linejoin="round"/>
<path d="M48.5201 18.37C48.5214 17.4675 48.3446 16.5735 47.9998 15.7394C47.655 14.9053 47.1491 14.1474 46.5109 13.5092C45.8727 12.871 45.1148 12.3651 44.2807 12.0203C43.4466 11.6755 42.5526 11.4987 41.6501 11.5H39.9501C39.0475 11.4987 38.1536 11.6755 37.3195 12.0203C36.4854 12.3651 35.7275 12.871 35.0893 13.5092C34.4511 14.1474 33.9451 14.9053 33.6003 15.7394C33.2556 16.5735 33.0788 17.4675 33.0801 18.37H48.5201Z" stroke="black" stroke-width="2" stroke-linecap="round" stroke-linejoin="round"/>
<path d="M40.8 9.47C40.3417 9.47 39.8879 9.37972 39.4645 9.20433C39.0411 9.02894 38.6563 8.77188 38.3323 8.4478C38.0082 8.12372 37.7511 7.73899 37.5757 7.31557C37.4003 6.89214 37.3101 6.43831 37.3101 5.98V4.5C37.3101 3.57174 37.6788 2.68149 38.3352 2.02512C38.9916 1.36874 39.8818 1 40.8101 1C41.7383 1 42.6286 1.36874 43.2849 2.02512C43.9413 2.68149 44.3101 3.57174 44.3101 4.5V5.98C44.3101 6.44 44.2191 6.89546 44.0425 7.32019C43.8659 7.74493 43.607 8.13056 43.2808 8.4549C42.9546 8.77923 42.5675 9.03589 42.1418 9.2101C41.716 9.38431 41.26 9.47264 40.8 9.47Z" stroke="black" stroke-width="2" stroke-linecap="round" stroke-linejoin="round"/>
<path d="M16.44 54.27C16.44 52.448 15.7162 50.7006 14.4278 49.4122C13.1395 48.1238 11.392 47.4 9.57001 47.4H7.87C6.04796 47.4 4.30055 48.1238 3.01218 49.4122C1.7238 50.7006 1 52.448 1 54.27H16.44Z" stroke="black" stroke-width="2" stroke-linecap="round" stroke-linejoin="round"/>
<path d="M8.72974 45.3699C7.80413 45.3699 6.91645 45.0022 6.26195 44.3477C5.60745 43.6932 5.23975 42.8055 5.23975 41.8799V40.4099C5.23975 39.4817 5.60848 38.5914 6.26486 37.935C6.92124 37.2787 7.81149 36.9099 8.73975 36.9099C9.668 36.9099 10.5582 37.2787 11.2146 37.935C11.871 38.5914 12.2397 39.4817 12.2397 40.4099V41.8799C12.2398 42.3399 12.1488 42.7954 11.9722 43.2201C11.7955 43.6449 11.5367 44.0305 11.2105 44.3548C10.8843 44.6792 10.4972 44.9358 10.0715 45.11C9.64572 45.2842 9.18973 45.3726 8.72974 45.3699Z" stroke="black" stroke-width="2" stroke-linecap="round" stroke-linejoin="round"/>
<path d="M48.5201 54.27C48.5201 52.448 47.7963 50.7006 46.5079 49.4122C45.2195 48.1238 43.4721 47.4 41.6501 47.4H39.9501C38.1281 47.4 36.3806 48.1238 35.0923 49.4122C33.8039 50.7006 33.0801 52.448 33.0801 54.27H48.5201Z" stroke="black" stroke-width="2" stroke-linecap="round" stroke-linejoin="round"/>
<path d="M40.8 45.3699C39.8744 45.3699 38.9868 45.0022 38.3323 44.3477C37.6778 43.6932 37.3101 42.8055 37.3101 41.8799V40.4099C37.3101 39.4817 37.6788 38.5914 38.3352 37.935C38.9916 37.2787 39.8818 36.9099 40.8101 36.9099C41.7383 36.9099 42.6286 37.2787 43.2849 37.935C43.9413 38.5914 44.3101 39.4817 44.3101 40.4099V41.8799C44.3101 42.3399 44.2191 42.7954 44.0425 43.2201C43.8659 43.6449 43.607 44.0305 43.2808 44.3548C42.9546 44.6792 42.5675 44.9358 42.1418 45.11C41.716 45.2842 41.26 45.3726 40.8 45.3699Z" stroke="black" stroke-width="2" stroke-linecap="round" stroke-linejoin="round"/>
<path d="M40.7603 31.7799V23.4299" stroke="black" stroke-width="2" stroke-linecap="round" stroke-linejoin="round"/>
<path d="M38.6802 30.51L40.8102 32.05L42.9102 30.48" stroke="black" stroke-width="2" stroke-linecap="round" stroke-linejoin="round"/>
<path d="M33.1202 31.49L25.1202 39.49L17.1202 31.49C16.4977 30.9892 15.9876 30.363 15.6231 29.652C15.2586 28.941 15.048 28.1612 15.0049 27.3634C14.9618 26.5656 15.0871 25.7677 15.3728 25.0216C15.6586 24.2754 16.0982 23.5979 16.6631 23.0329C17.2281 22.468 17.9057 22.0283 18.6518 21.7426C19.3979 21.4569 20.1959 21.3315 20.9937 21.3746C21.7915 21.4177 22.5712 21.6284 23.2822 21.9929C23.9932 22.3573 24.6194 22.8674 25.1202 23.49C30.9002 17.67 38.9202 25.69 33.1202 31.49Z" stroke="black" stroke-width="2" stroke-linecap="round" stroke-linejoin="round"/>
<path d="M8.77002 23.7V32.0499" stroke="black" stroke-width="2" stroke-linecap="round" stroke-linejoin="round"/>
<path d="M10.8399 24.9699L8.70985 23.4299L6.60986 24.9999" stroke="black" stroke-width="2" stroke-linecap="round" stroke-linejoin="round"/>
<path d="M29.14 12.65H20.79" stroke="black" stroke-width="2" stroke-linecap="round" stroke-linejoin="round"/>
<path d="M27.8701 10.58L29.4101 12.7L27.8501 14.8" stroke="black" stroke-width="2" stroke-linecap="round" stroke-linejoin="round"/>
<path d="M21.0601 45.5599H29.41" stroke="black" stroke-width="2" stroke-linecap="round" stroke-linejoin="round"/>
<path d="M22.33 43.48L20.79 45.61L22.36 47.71" stroke="black" stroke-width="2" stroke-linecap="round" stroke-linejoin="round"/>
</svg>
