<svg width="73" height="59" viewBox="0 0 73 59" fill="none" xmlns="http://www.w3.org/2000/svg">
<path d="M12.42 48.2302L1 41.0102L12.37 24.2202L23.79 31.4402L12.42 48.2302Z" stroke="black" stroke-width="2" stroke-linecap="round" stroke-linejoin="round"/>
<path d="M17.54 34.3702C17.1897 34.8715 16.6597 35.2187 16.0602 35.3398C15.4606 35.4608 14.8375 35.3464 14.32 35.0202C14.0658 34.8655 13.8456 34.6608 13.6728 34.4185C13.4999 34.1763 13.378 33.9014 13.3144 33.6107C13.2509 33.32 13.247 33.0194 13.3029 32.7271C13.3589 32.4348 13.4736 32.1569 13.64 31.9102C13.9904 31.4088 14.5204 31.0616 15.1199 30.9406C15.7195 30.8196 16.3426 30.934 16.86 31.2602C17.1143 31.4149 17.3345 31.6196 17.5073 31.8618C17.6802 32.1041 17.8021 32.3789 17.8656 32.6696C17.9292 32.9604 17.9331 33.261 17.8772 33.5533C17.8212 33.8456 17.7065 34.1235 17.54 34.3702Z" stroke="black" stroke-width="2" stroke-linecap="round" stroke-linejoin="round"/>
<path d="M14.21 45.6402L25.48 54.1702L33.21 57.5202C33.7503 57.7541 34.3475 57.8238 34.9272 57.7207C35.5069 57.6175 36.0435 57.3461 36.47 56.9402L37.85 55.6002L38.12 55.7001C38.6481 55.9004 39.222 55.9476 39.7757 55.8361C40.3295 55.7247 40.8405 55.4592 41.25 55.0702L42.99 53.3902C43.6289 53.6054 44.3218 53.5992 44.9568 53.3724C45.5918 53.1456 46.1319 52.7115 46.49 52.1402L47.37 50.6802L56.82 43.9402" stroke="black" stroke-width="2" stroke-linecap="round" stroke-linejoin="round"/>
<path d="M37.81 55.6001L31.71 50.6301" stroke="black" stroke-width="2" stroke-linecap="round" stroke-linejoin="round"/>
<path d="M42.9497 53.3901L36.7197 48.5101" stroke="black" stroke-width="2" stroke-linecap="round" stroke-linejoin="round"/>
<path d="M47.3301 50.6801L41.3901 46.1201" stroke="black" stroke-width="2" stroke-linecap="round" stroke-linejoin="round"/>
<path d="M50.6799 48.2902L41.6799 40.4602C41.2034 40.0525 40.6052 39.8147 39.9789 39.7839C39.3527 39.7531 38.7339 39.9312 38.2199 40.2902C36.2199 41.7302 32.6799 43.5402 29.1099 41.9402L36.6799 33.6802C37.091 33.235 37.609 32.9022 38.1847 32.7132C38.7604 32.5242 39.3749 32.4853 39.9699 32.6002L50.6599 34.7702" stroke="black" stroke-width="2" stroke-linecap="round" stroke-linejoin="round"/>
<path d="M34.4699 36.0301L32.5699 35.0301C31.2872 34.3302 29.86 33.9366 28.3999 33.8801L22.3999 33.5401" stroke="black" stroke-width="2" stroke-linecap="round" stroke-linejoin="round"/>
<path d="M59.7299 48.2302L71.1499 41.0102L59.7799 24.2202L48.3599 31.4402L59.7299 48.2302Z" stroke="black" stroke-width="2" stroke-linecap="round" stroke-linejoin="round"/>
<path d="M54.6102 34.3702C54.9624 34.8723 55.4941 35.2197 56.0953 35.3407C56.6965 35.4617 57.3213 35.347 57.8402 35.0202C58.0884 34.8637 58.3029 34.6593 58.4713 34.419C58.6397 34.1788 58.7585 33.9074 58.8209 33.6207C58.8832 33.334 58.8879 33.0377 58.8345 32.7492C58.7812 32.4607 58.671 32.1857 58.5102 31.9402C58.1599 31.4389 57.6299 31.0916 57.0304 30.9706C56.4308 30.8496 55.8077 30.964 55.2902 31.2902C55.0402 31.445 54.8237 31.6483 54.6536 31.8881C54.4835 32.128 54.3632 32.3995 54.2998 32.6866C54.2364 32.9737 54.2312 33.2707 54.2845 33.5598C54.3378 33.849 54.4486 34.1246 54.6102 34.3702Z" stroke="black" stroke-width="2" stroke-linecap="round" stroke-linejoin="round"/>
<path d="M45.7078 15.6255C47.6628 10.9058 45.4215 5.49481 40.7017 3.53982C35.9819 1.58483 30.571 3.82612 28.616 8.54588C26.661 13.2656 28.9023 18.6766 33.6221 20.6316C38.3418 22.5866 43.7528 20.3453 45.7078 15.6255Z" stroke="black" stroke-width="2" stroke-linecap="round" stroke-linejoin="round"/>
<path d="M33.5303 12.8701L35.9303 15.0601L40.7803 9.12009" stroke="black" stroke-width="2" stroke-linecap="round" stroke-linejoin="round"/>
</svg>
