<svg width="56" height="57" viewBox="0 0 56 57" fill="none" xmlns="http://www.w3.org/2000/svg">
<path d="M28.167 22.42C28.0408 22.9472 28.035 23.4961 28.15 24.0258C28.2649 24.5556 28.4977 25.0527 28.8311 25.4801C29.1644 25.9076 29.5897 26.2545 30.0755 26.4952C30.5612 26.7358 31.095 26.8639 31.637 26.87" stroke="black" stroke-width="2" stroke-linecap="round" stroke-linejoin="round"/>
<path d="M19.3669 22.42C19.4931 22.9472 19.499 23.4961 19.384 24.0258C19.269 24.5556 19.0363 25.0527 18.7029 25.4801C18.3696 25.9076 17.9442 26.2545 17.4585 26.4952C16.9727 26.7358 16.439 26.8639 15.897 26.87C15.897 32.4 19.057 37.32 23.767 39.11C28.467 37.32 31.637 32.4 31.637 26.87C31.0949 26.8639 30.5612 26.7358 30.0754 26.4952C29.5897 26.2545 29.1644 25.9076 28.831 25.4801C28.4977 25.0527 28.2649 24.5556 28.1499 24.0258C28.035 23.4961 28.0408 22.9472 28.167 22.42H19.3669Z" stroke="black" stroke-width="2" stroke-linecap="round" stroke-linejoin="round"/>
<path d="M15.107 1H14.527C12.3731 1 10.627 2.74609 10.627 4.9V7.25C10.627 9.40391 12.3731 11.15 14.527 11.15H15.107C17.2609 11.15 19.007 9.40391 19.007 7.25V4.9C19.007 2.74609 17.2609 1 15.107 1Z" stroke="black" stroke-width="2" stroke-linecap="round" stroke-linejoin="round"/>
<path d="M20.4269 37.75V54.03C20.4282 54.2759 20.3808 54.5197 20.2873 54.7472C20.1938 54.9747 20.0561 55.1813 19.8821 55.3552C19.7082 55.5292 19.5016 55.6669 19.2741 55.7604C19.0466 55.8539 18.8028 55.9013 18.5569 55.9H16.6869C16.1909 55.9 15.7153 55.703 15.3646 55.3523C15.0139 55.0016 14.8169 54.526 14.8169 54.03" stroke="black" stroke-width="2" stroke-linecap="round" stroke-linejoin="round"/>
<path d="M14.8167 37.46V54.02C14.8167 54.2656 14.7683 54.5087 14.6744 54.7356C14.5804 54.9625 14.4426 55.1686 14.269 55.3423C14.0954 55.5159 13.8892 55.6537 13.6623 55.7477C13.4354 55.8416 13.1923 55.89 12.9467 55.89H11.0767C10.5808 55.89 10.1051 55.693 9.75441 55.3423C9.40372 54.9916 9.20671 54.516 9.20671 54.02V22.15L4.39671 35.46C3.10756 34.945 2.06625 33.9533 1.489 32.6908C0.911745 31.4283 0.842879 29.9919 1.29671 28.68L4.29671 20C4.85705 18.3909 5.90412 16.9961 7.29277 16.0088C8.68143 15.0215 10.3429 14.4907 12.0467 14.49H18.0467C20.0749 14.485 22.0292 15.2506 23.5144 16.6318C24.9996 18.013 25.9047 19.9068 26.0467 21.93" stroke="black" stroke-width="2" stroke-linecap="round" stroke-linejoin="round"/>
<path d="M2.41699 6.65997V55.89" stroke="black" stroke-width="2" stroke-linecap="round" stroke-linejoin="round"/>
<path d="M54.3569 43.96H30.5469V49.82H54.3569V43.96Z" stroke="black" stroke-width="2" stroke-linecap="round" stroke-linejoin="round"/>
<path d="M49.1268 38.1099H35.7769L37.0468 21.8199H47.8568L49.1268 38.1099Z" stroke="black" stroke-width="2" stroke-linecap="round" stroke-linejoin="round"/>
<path d="M51.937 43.96H32.937V41.5C32.9357 41.0544 33.0225 40.613 33.1924 40.2011C33.3623 39.7893 33.6119 39.415 33.927 39.1C34.242 38.7849 34.6163 38.5353 35.0282 38.3654C35.4401 38.1955 35.8815 38.1087 36.327 38.11H48.507C49.4061 38.11 50.2684 38.4672 50.9041 39.1029C51.5399 39.7387 51.897 40.6009 51.897 41.5L51.937 43.96Z" stroke="black" stroke-width="2" stroke-linecap="round" stroke-linejoin="round"/>
<path d="M49.6568 11.56V15.75H45.0468V11.59H39.8568V15.75H35.2468V11.59H30.5068V17.67C30.5068 18.7786 30.9472 19.8418 31.7311 20.6257C32.515 21.4096 33.5782 21.85 34.6868 21.85H50.1368C50.6858 21.85 51.2293 21.7419 51.7365 21.5318C52.2436 21.3217 52.7044 21.0139 53.0925 20.6257C53.4807 20.2376 53.7886 19.7768 53.9987 19.2696C54.2087 18.7625 54.3168 18.2189 54.3168 17.67V11.59L49.6568 11.56Z" stroke="black" stroke-width="2" stroke-linecap="round" stroke-linejoin="round"/>
</svg>
