<svg width="62" height="56" viewBox="0 0 62 56" fill="none" xmlns="http://www.w3.org/2000/svg">
<path d="M21.8311 42.9767L31.7711 33.0467C32.2511 32.5667 32.9022 32.2971 33.5811 32.2971C34.2599 32.2971 34.911 32.5667 35.3911 33.0467L35.451 33.0967C35.931 33.5768 36.2007 34.2279 36.2007 34.9067C36.2007 35.5856 35.931 36.2367 35.451 36.7167L23.1711 49.2067" stroke="black" stroke-width="2" stroke-linecap="round" stroke-linejoin="round"/>
<path d="M18.1016 39.2467L30.5516 26.8067C31.0329 26.3267 31.6853 26.0575 32.3651 26.0585C33.0449 26.0594 33.6965 26.3304 34.1766 26.8117C34.6566 27.2931 34.9258 27.9454 34.9248 28.6253C34.9239 29.3051 34.6529 29.9567 34.1716 30.4367L21.7316 42.8667" stroke="black" stroke-width="2" stroke-linecap="round" stroke-linejoin="round"/>
<path d="M14.4316 35.5767L28.4316 21.5767C28.913 21.0992 29.5636 20.8312 30.2416 20.8312C30.9197 20.8312 31.5703 21.0992 32.0516 21.5767V21.6267C32.5322 22.1085 32.8021 22.7612 32.8021 23.4417C32.8021 24.1222 32.5322 24.7749 32.0516 25.2567L17.9716 39.2567" stroke="black" stroke-width="2" stroke-linecap="round" stroke-linejoin="round"/>
<path d="M23.1712 49.2067L21.8012 50.5867C20.0427 52.3473 17.8284 53.5832 15.4067 54.1555C12.9851 54.7278 10.4518 54.6139 8.09122 53.8267C6.53953 53.2805 5.19736 52.263 4.25244 50.9164C3.30752 49.5699 2.8071 47.9616 2.8212 46.3167L2.74121 28.5567C2.74121 28.2205 2.80741 27.8876 2.93607 27.577C3.06472 27.2664 3.25331 26.9842 3.49103 26.7465C3.72875 26.5088 4.01094 26.3202 4.32153 26.1916C4.63213 26.0629 4.96502 25.9967 5.30121 25.9967H5.36121C5.69776 25.9954 6.03125 26.0607 6.34244 26.1889C6.65363 26.3171 6.93637 26.5056 7.17435 26.7436C7.41233 26.9815 7.60085 27.2643 7.72903 27.5755C7.85722 27.8867 7.92253 28.2201 7.9212 28.5567V34.3467C7.92237 34.3774 7.93239 34.4072 7.95004 34.4324C7.96769 34.4576 7.99223 34.4772 8.02072 34.4888C8.04922 34.5004 8.08045 34.5036 8.11069 34.4979C8.14092 34.4922 8.16887 34.4779 8.19119 34.4567L21.8712 20.6267C22.353 20.1461 23.0057 19.8762 23.6862 19.8762C24.3667 19.8762 25.0194 20.1461 25.5012 20.6267V20.6867C25.9812 21.1668 26.2508 21.8178 26.2508 22.4967C26.2508 23.1756 25.9812 23.8266 25.5012 24.3067L14.3612 35.5067" stroke="black" stroke-width="2" stroke-linecap="round" stroke-linejoin="round"/>
<path d="M1.36107 21.0767C-1.81893 6.3567 16.6711 -7.0633 30.6811 6.9467C47.8611 -10.2233 71.6811 13.5467 54.4511 30.7267L30.6611 54.5067" stroke="black" stroke-width="2" stroke-linecap="round" stroke-linejoin="round"/>
</svg>
