<svg width="62" height="69" viewBox="0 0 62 69" fill="none" xmlns="http://www.w3.org/2000/svg">
<path d="M15.75 42.3812H1L2.84 39.1912L4.68999 35.9912L8.38 29.6112L12.07 35.9912L13.92 39.2012L15.75 42.3812Z" stroke="black" stroke-width="2" stroke-linecap="round" stroke-linejoin="round"/>
<path d="M15.76 42.3812C15.76 46.0712 12.46 49.0712 8.38 49.0712C4.3 49.0712 1 46.0712 1 42.3812H15.76Z" stroke="black" stroke-width="2" stroke-linecap="round" stroke-linejoin="round"/>
<path d="M30.7 14.1712C29.2872 14.166 27.9341 13.601 26.937 12.6001C25.9399 11.5993 25.38 10.244 25.38 8.83124V6.58124C25.3488 5.85987 25.4639 5.13966 25.7185 4.46397C25.973 3.78829 26.3617 3.17112 26.8611 2.64964C27.3605 2.12817 27.9603 1.71316 28.6243 1.42966C29.2884 1.14615 30.003 1 30.725 1C31.447 1 32.1616 1.14615 32.8257 1.42966C33.4897 1.71316 34.0895 2.12817 34.5889 2.64964C35.0883 3.17112 35.477 3.78829 35.7315 4.46397C35.9861 5.13966 36.1012 5.85987 36.07 6.58124V8.83124C36.07 9.53503 35.9309 10.2319 35.6607 10.8817C35.3904 11.5316 34.9944 12.1216 34.4954 12.6178C33.9963 13.1141 33.4041 13.5068 32.7527 13.7734C32.1014 14.04 31.4038 14.1752 30.7 14.1712Z" stroke="black" stroke-width="2" stroke-linecap="round" stroke-linejoin="round"/>
<path d="M30.6998 43.1913V65.3313M30.6998 65.3313C30.7011 65.621 30.6451 65.9082 30.5352 66.1763C30.4252 66.4443 30.2634 66.688 30.0589 66.8934C29.8545 67.0987 29.6116 67.2617 29.344 67.3729C29.0764 67.4841 28.7895 67.5413 28.4998 67.5413H26.2898C25.7054 67.5386 25.1458 67.3046 24.7335 66.8905C24.3212 66.4763 24.0898 65.9157 24.0898 65.3313V23.9313H9.37976C8.93256 23.93 8.49617 23.7937 8.12773 23.5403C7.7593 23.2868 7.476 22.9279 7.31496 22.5107C7.15391 22.0935 7.12263 21.6374 7.22519 21.2022C7.32776 20.7669 7.55939 20.3727 7.88976 20.0713C8.85348 19.1889 10.1131 18.7001 11.4198 18.7013H49.9798C51.2864 18.7001 52.546 19.1889 53.5098 20.0713C53.8401 20.3727 54.0718 20.7669 54.1743 21.2022C54.2769 21.6374 54.2456 22.0935 54.0846 22.5107C53.9235 22.9279 53.6402 23.2868 53.2718 23.5403C52.9034 23.7937 52.467 23.93 52.0198 23.9313H37.3198V65.3313C37.3198 65.9174 37.0869 66.4795 36.6725 66.894C36.258 67.3085 35.6959 67.5413 35.1098 67.5413H32.9098C32.3236 67.5413 31.7615 67.3085 31.3471 66.894C30.9326 66.4795 30.6998 65.9174 30.6998 65.3313Z" stroke="black" stroke-width="2" stroke-linecap="round" stroke-linejoin="round"/>
<path d="M45.6499 42.3812H60.4099L58.5599 39.1912L56.7099 35.9912L53.0299 29.6112L49.3299 35.9912L47.4799 39.2012L45.6499 42.3812Z" stroke="black" stroke-width="2" stroke-linecap="round" stroke-linejoin="round"/>
<path d="M45.6499 42.3812C45.6499 46.0712 48.9499 49.0712 53.0299 49.0712C57.1099 49.0712 60.4099 46.0712 60.4099 42.3812H45.6499Z" stroke="black" stroke-width="2" stroke-linecap="round" stroke-linejoin="round"/>
</svg>
