<svg width="62" height="52" viewBox="0 0 62 52" fill="none" xmlns="http://www.w3.org/2000/svg">
<path d="M12.94 25.5599H1V50.2099H12.94V25.5599Z" stroke="black" stroke-width="2" stroke-linecap="round" stroke-linejoin="round"/>
<path d="M12.9502 46.04L20.8902 47.51C20.8902 47.51 31.5702 46.77 36.9402 44.9L44.4002 42.3C46.9035 41.4004 48.996 39.624 50.2902 37.3L60.4102 19.4C60.4102 19.4 55.6802 17.21 53.1602 19.83L43.6802 32.02" stroke="black" stroke-width="2" stroke-linecap="round" stroke-linejoin="round"/>
<path d="M28.2402 40.51L44.7602 35.19C44.7602 35.19 45.6602 32.73 42.4502 31.26C40.5302 30.39 36.5902 31.56 34.3302 32.37C33.0286 32.8196 31.6902 33.1542 30.3302 33.37C29.2335 33.3703 28.153 33.1062 27.1802 32.6C24.4002 31.15 17.8402 28.6 12.9102 33.37" stroke="black" stroke-width="2" stroke-linecap="round" stroke-linejoin="round"/>
<path d="M8.15521 34.69C9.50736 34.1299 10.1495 32.5797 9.58938 31.2276C9.0293 29.8754 7.47913 29.2333 6.12699 29.7934C4.77484 30.3535 4.13275 31.9036 4.69283 33.2558C5.2529 34.6079 6.80306 35.25 8.15521 34.69Z" stroke="black" stroke-width="2" stroke-linecap="round" stroke-linejoin="round"/>
<path d="M20.38 19.05V16.45C20.4504 15.6959 20.2231 14.9442 19.7466 14.3556C19.27 13.767 18.5822 13.3881 17.83 13.3H14.42C13.6678 13.3881 12.9799 13.767 12.5034 14.3556C12.0269 14.9442 11.7996 15.6959 11.87 16.45V19.05H20.38Z" stroke="black" stroke-width="2" stroke-linecap="round" stroke-linejoin="round"/>
<path d="M16.2603 5.35999H15.9902C14.7476 5.35999 13.7402 6.36734 13.7402 7.60999V8.87998C13.7402 10.1226 14.7476 11.13 15.9902 11.13H16.2603C17.5029 11.13 18.5103 10.1226 18.5103 8.87998V7.60999C18.5103 6.36734 17.5029 5.35999 16.2603 5.35999Z" stroke="black" stroke-width="2" stroke-linecap="round" stroke-linejoin="round"/>
<path d="M34.0898 19.05V16.19C34.0898 14.19 32.7498 12.5 31.0898 12.5H27.0898C25.4398 12.5 24.0898 14.15 24.0898 16.19V19.05H34.0898Z" stroke="black" stroke-width="2" stroke-linecap="round" stroke-linejoin="round"/>
<path d="M29.2601 3.21997H28.9401C27.4876 3.21997 26.3101 4.39746 26.3101 5.84997V7.33997C26.3101 8.79247 27.4876 9.96997 28.9401 9.96997H29.2601C30.7126 9.96997 31.89 8.79247 31.89 7.33997V5.84997C31.89 4.39746 30.7126 3.21997 29.2601 3.21997Z" stroke="black" stroke-width="2" stroke-linecap="round" stroke-linejoin="round"/>
<path d="M49.6104 19.05V15.92C49.6104 13.58 48.0704 11.68 46.1804 11.68H41.5804C39.6904 11.68 38.1504 13.58 38.1504 15.92V19.05H49.6104Z" stroke="black" stroke-width="2" stroke-linecap="round" stroke-linejoin="round"/>
<path d="M44.0599 1H43.6999C42.0265 1 40.6699 2.35658 40.6699 4.03V5.74C40.6699 7.41342 42.0265 8.77 43.6999 8.77H44.0599C45.7334 8.77 47.0899 7.41342 47.0899 5.74V4.03C47.0899 2.35658 45.7334 1 44.0599 1Z" stroke="black" stroke-width="2" stroke-linecap="round" stroke-linejoin="round"/>
</svg>
